<svg xmlns="http://www.w3.org/2000/svg" viewBox="0 0 1280 64" width="1280" height="64" role="img" aria-label="Live TV, whole-home sync, DVR, multiview, 60 fps, 5.1, 14-day guide, no account, no subscription, open source">
<defs><filter id="glow" x="-50%" y="-50%" width="200%" height="200%"><feGaussianBlur stdDeviation="6" result="b"/><feMerge><feMergeNode in="b"/><feMergeNode in="SourceGraphic"/></feMerge></filter><filter id="soft" x="-50%" y="-50%" width="200%" height="200%"><feGaussianBlur stdDeviation="60"/></filter><linearGradient id="glass" x1="0" y1="0" x2="0" y2="1"><stop offset="0" stop-color="#FFFFFF" stop-opacity="0.10"/><stop offset="1" stop-color="#FFFFFF" stop-opacity="0.03"/></linearGradient><linearGradient id="rim" x1="0" y1="0" x2="1" y2="1"><stop offset="0" stop-color="#FFFFFF" stop-opacity="0.35"/><stop offset="0.5" stop-color="#FFFFFF" stop-opacity="0.05"/><stop offset="1" stop-color="#8FB2FF" stop-opacity="0.30"/></linearGradient><clipPath id="clip"><rect width="1280" height="64" rx="32"/></clipPath><linearGradient id="dot" x1="0" x2="1"><stop offset="0" stop-color="#22D3EE"/><stop offset="1" stop-color="#F472B6"/></linearGradient><linearGradient id="tfade" x1="0" x2="1"><stop offset="0" stop-color="#05070D"/><stop offset="0.08" stop-color="#05070D" stop-opacity="0"/><stop offset="0.92" stop-color="#05070D" stop-opacity="0"/><stop offset="1" stop-color="#05070D"/></linearGradient></defs>
<g clip-path="url(#clip)"><rect width="1280" height="64" fill="#05070D"/><g><animateTransform attributeName="transform" type="translate" from="0 0" to="-2294 0" dur="40s" repeatCount="indefinite"/><g transform="translate(0 14)"><rect width="86" height="36" rx="18" fill="url(#glass)" stroke="url(#rim)"/><circle cx="16" cy="18" r="3.5" fill="url(#dot)"/><text x="26" y="23" font-family="-apple-system, BlinkMacSystemFont, 'SF Pro Display', 'Segoe UI', Inter, Helvetica, Arial, sans-serif" font-size="14" font-weight="600" fill="#DCE3EE">Live TV</text></g><g transform="translate(98 14)"><rect width="155" height="36" rx="18" fill="url(#glass)" stroke="url(#rim)"/><circle cx="16" cy="18" r="3.5" fill="url(#dot)"/><text x="26" y="23" font-family="-apple-system, BlinkMacSystemFont, 'SF Pro Display', 'Segoe UI', Inter, Helvetica, Arial, sans-serif" font-size="14" font-weight="600" fill="#DCE3EE">Whole-home sync</text></g><g transform="translate(265 14)"><rect width="52" height="36" rx="18" fill="url(#glass)" stroke="url(#rim)"/><circle cx="16" cy="18" r="3.5" fill="url(#dot)"/><text x="26" y="23" font-family="-apple-system, BlinkMacSystemFont, 'SF Pro Display', 'Segoe UI', Inter, Helvetica, Arial, sans-serif" font-size="14" font-weight="600" fill="#DCE3EE">DVR</text></g><g transform="translate(329 14)"><rect width="129" height="36" rx="18" fill="url(#glass)" stroke="url(#rim)"/><circle cx="16" cy="18" r="3.5" fill="url(#dot)"/><text x="26" y="23" font-family="-apple-system, BlinkMacSystemFont, 'SF Pro Display', 'Segoe UI', Inter, Helvetica, Arial, sans-serif" font-size="14" font-weight="600" fill="#DCE3EE">Multiview ×4</text></g><g transform="translate(470 14)"><rect width="121" height="36" rx="18" fill="url(#glass)" stroke="url(#rim)"/><circle cx="16" cy="18" r="3.5" fill="url(#dot)"/><text x="26" y="23" font-family="-apple-system, BlinkMacSystemFont, 'SF Pro Display', 'Segoe UI', Inter, Helvetica, Arial, sans-serif" font-size="14" font-weight="600" fill="#DCE3EE">True 60 fps</text></g><g transform="translate(603 14)"><rect width="129" height="36" rx="18" fill="url(#glass)" stroke="url(#rim)"/><circle cx="16" cy="18" r="3.5" fill="url(#dot)"/><text x="26" y="23" font-family="-apple-system, BlinkMacSystemFont, 'SF Pro Display', 'Segoe UI', Inter, Helvetica, Arial, sans-serif" font-size="14" font-weight="600" fill="#DCE3EE">5.1 surround</text></g><g transform="translate(744 14)"><rect width="129" height="36" rx="18" fill="url(#glass)" stroke="url(#rim)"/><circle cx="16" cy="18" r="3.5" fill="url(#dot)"/><text x="26" y="23" font-family="-apple-system, BlinkMacSystemFont, 'SF Pro Display', 'Segoe UI', Inter, Helvetica, Arial, sans-serif" font-size="14" font-weight="600" fill="#DCE3EE">14-day guide</text></g><g transform="translate(885 14)"><rect width="310" height="36" rx="18" fill="url(#glass)" stroke="url(#rim)"/><circle cx="16" cy="18" r="3.5" fill="url(#dot)"/><text x="26" y="23" font-family="-apple-system, BlinkMacSystemFont, 'SF Pro Display', 'Segoe UI', Inter, Helvetica, Arial, sans-serif" font-size="14" font-weight="600" fill="#DCE3EE">Sports that record till the final</text></g><g transform="translate(1207 14)"><rect width="189" height="36" rx="18" fill="url(#glass)" stroke="url(#rim)"/><circle cx="16" cy="18" r="3.5" fill="url(#dot)"/><text x="26" y="23" font-family="-apple-system, BlinkMacSystemFont, 'SF Pro Display', 'Segoe UI', Inter, Helvetica, Arial, sans-serif" font-size="14" font-weight="600" fill="#DCE3EE">Spoiler-safe scores</text></g><g transform="translate(1408 14)"><rect width="138" height="36" rx="18" fill="url(#glass)" stroke="url(#rim)"/><circle cx="16" cy="18" r="3.5" fill="url(#dot)"/><text x="26" y="23" font-family="-apple-system, BlinkMacSystemFont, 'SF Pro Display', 'Segoe UI', Inter, Helvetica, Arial, sans-serif" font-size="14" font-weight="600" fill="#DCE3EE">Setup in 90 s</text></g><g transform="translate(1558 14)"><rect width="112" height="36" rx="18" fill="url(#glass)" stroke="url(#rim)"/><circle cx="16" cy="18" r="3.5" fill="url(#dot)"/><text x="26" y="23" font-family="-apple-system, BlinkMacSystemFont, 'SF Pro Display', 'Segoe UI', Inter, Helvetica, Arial, sans-serif" font-size="14" font-weight="600" fill="#DCE3EE">No account</text></g><g transform="translate(1682 14)"><rect width="155" height="36" rx="18" fill="url(#glass)" stroke="url(#rim)"/><circle cx="16" cy="18" r="3.5" fill="url(#dot)"/><text x="26" y="23" font-family="-apple-system, BlinkMacSystemFont, 'SF Pro Display', 'Segoe UI', Inter, Helvetica, Arial, sans-serif" font-size="14" font-weight="600" fill="#DCE3EE">No subscription</text></g><g transform="translate(1849 14)"><rect width="78" height="36" rx="18" fill="url(#glass)" stroke="url(#rim)"/><circle cx="16" cy="18" r="3.5" fill="url(#dot)"/><text x="26" y="23" font-family="-apple-system, BlinkMacSystemFont, 'SF Pro Display', 'Segoe UI', Inter, Helvetica, Arial, sans-serif" font-size="14" font-weight="600" fill="#DCE3EE">No ads</text></g><g transform="translate(1939 14)"><rect width="121" height="36" rx="18" fill="url(#glass)" stroke="url(#rim)"/><circle cx="16" cy="18" r="3.5" fill="url(#dot)"/><text x="26" y="23" font-family="-apple-system, BlinkMacSystemFont, 'SF Pro Display', 'Segoe UI', Inter, Helvetica, Arial, sans-serif" font-size="14" font-weight="600" fill="#DCE3EE">Open source</text></g><g transform="translate(2071 14)"><rect width="78" height="36" rx="18" fill="url(#glass)" stroke="url(#rim)"/><circle cx="16" cy="18" r="3.5" fill="url(#dot)"/><text x="26" y="23" font-family="-apple-system, BlinkMacSystemFont, 'SF Pro Display', 'Segoe UI', Inter, Helvetica, Arial, sans-serif" font-size="14" font-weight="600" fill="#DCE3EE">Docker</text></g><g transform="translate(2161 14)"><rect width="121" height="36" rx="18" fill="url(#glass)" stroke="url(#rim)"/><circle cx="16" cy="18" r="3.5" fill="url(#dot)"/><text x="26" y="23" font-family="-apple-system, BlinkMacSystemFont, 'SF Pro Display', 'Segoe UI', Inter, Helvetica, Arial, sans-serif" font-size="14" font-weight="600" fill="#DCE3EE">Self-hosted</text></g><g transform="translate(2294 0)"><g transform="translate(0 14)"><rect width="86" height="36" rx="18" fill="url(#glass)" stroke="url(#rim)"/><circle cx="16" cy="18" r="3.5" fill="url(#dot)"/><text x="26" y="23" font-family="-apple-system, BlinkMacSystemFont, 'SF Pro Display', 'Segoe UI', Inter, Helvetica, Arial, sans-serif" font-size="14" font-weight="600" fill="#DCE3EE">Live TV</text></g><g transform="translate(98 14)"><rect width="155" height="36" rx="18" fill="url(#glass)" stroke="url(#rim)"/><circle cx="16" cy="18" r="3.5" fill="url(#dot)"/><text x="26" y="23" font-family="-apple-system, BlinkMacSystemFont, 'SF Pro Display', 'Segoe UI', Inter, Helvetica, Arial, sans-serif" font-size="14" font-weight="600" fill="#DCE3EE">Whole-home sync</text></g><g transform="translate(265 14)"><rect width="52" height="36" rx="18" fill="url(#glass)" stroke="url(#rim)"/><circle cx="16" cy="18" r="3.5" fill="url(#dot)"/><text x="26" y="23" font-family="-apple-system, BlinkMacSystemFont, 'SF Pro Display', 'Segoe UI', Inter, Helvetica, Arial, sans-serif" font-size="14" font-weight="600" fill="#DCE3EE">DVR</text></g><g transform="translate(329 14)"><rect width="129" height="36" rx="18" fill="url(#glass)" stroke="url(#rim)"/><circle cx="16" cy="18" r="3.5" fill="url(#dot)"/><text x="26" y="23" font-family="-apple-system, BlinkMacSystemFont, 'SF Pro Display', 'Segoe UI', Inter, Helvetica, Arial, sans-serif" font-size="14" font-weight="600" fill="#DCE3EE">Multiview ×4</text></g><g transform="translate(470 14)"><rect width="121" height="36" rx="18" fill="url(#glass)" stroke="url(#rim)"/><circle cx="16" cy="18" r="3.5" fill="url(#dot)"/><text x="26" y="23" font-family="-apple-system, BlinkMacSystemFont, 'SF Pro Display', 'Segoe UI', Inter, Helvetica, Arial, sans-serif" font-size="14" font-weight="600" fill="#DCE3EE">True 60 fps</text></g><g transform="translate(603 14)"><rect width="129" height="36" rx="18" fill="url(#glass)" stroke="url(#rim)"/><circle cx="16" cy="18" r="3.5" fill="url(#dot)"/><text x="26" y="23" font-family="-apple-system, BlinkMacSystemFont, 'SF Pro Display', 'Segoe UI', Inter, Helvetica, Arial, sans-serif" font-size="14" font-weight="600" fill="#DCE3EE">5.1 surround</text></g><g transform="translate(744 14)"><rect width="129" height="36" rx="18" fill="url(#glass)" stroke="url(#rim)"/><circle cx="16" cy="18" r="3.5" fill="url(#dot)"/><text x="26" y="23" font-family="-apple-system, BlinkMacSystemFont, 'SF Pro Display', 'Segoe UI', Inter, Helvetica, Arial, sans-serif" font-size="14" font-weight="600" fill="#DCE3EE">14-day guide</text></g><g transform="translate(885 14)"><rect width="310" height="36" rx="18" fill="url(#glass)" stroke="url(#rim)"/><circle cx="16" cy="18" r="3.5" fill="url(#dot)"/><text x="26" y="23" font-family="-apple-system, BlinkMacSystemFont, 'SF Pro Display', 'Segoe UI', Inter, Helvetica, Arial, sans-serif" font-size="14" font-weight="600" fill="#DCE3EE">Sports that record till the final</text></g><g transform="translate(1207 14)"><rect width="189" height="36" rx="18" fill="url(#glass)" stroke="url(#rim)"/><circle cx="16" cy="18" r="3.5" fill="url(#dot)"/><text x="26" y="23" font-family="-apple-system, BlinkMacSystemFont, 'SF Pro Display', 'Segoe UI', Inter, Helvetica, Arial, sans-serif" font-size="14" font-weight="600" fill="#DCE3EE">Spoiler-safe scores</text></g><g transform="translate(1408 14)"><rect width="138" height="36" rx="18" fill="url(#glass)" stroke="url(#rim)"/><circle cx="16" cy="18" r="3.5" fill="url(#dot)"/><text x="26" y="23" font-family="-apple-system, BlinkMacSystemFont, 'SF Pro Display', 'Segoe UI', Inter, Helvetica, Arial, sans-serif" font-size="14" font-weight="600" fill="#DCE3EE">Setup in 90 s</text></g><g transform="translate(1558 14)"><rect width="112" height="36" rx="18" fill="url(#glass)" stroke="url(#rim)"/><circle cx="16" cy="18" r="3.5" fill="url(#dot)"/><text x="26" y="23" font-family="-apple-system, BlinkMacSystemFont, 'SF Pro Display', 'Segoe UI', Inter, Helvetica, Arial, sans-serif" font-size="14" font-weight="600" fill="#DCE3EE">No account</text></g><g transform="translate(1682 14)"><rect width="155" height="36" rx="18" fill="url(#glass)" stroke="url(#rim)"/><circle cx="16" cy="18" r="3.5" fill="url(#dot)"/><text x="26" y="23" font-family="-apple-system, BlinkMacSystemFont, 'SF Pro Display', 'Segoe UI', Inter, Helvetica, Arial, sans-serif" font-size="14" font-weight="600" fill="#DCE3EE">No subscription</text></g><g transform="translate(1849 14)"><rect width="78" height="36" rx="18" fill="url(#glass)" stroke="url(#rim)"/><circle cx="16" cy="18" r="3.5" fill="url(#dot)"/><text x="26" y="23" font-family="-apple-system, BlinkMacSystemFont, 'SF Pro Display', 'Segoe UI', Inter, Helvetica, Arial, sans-serif" font-size="14" font-weight="600" fill="#DCE3EE">No ads</text></g><g transform="translate(1939 14)"><rect width="121" height="36" rx="18" fill="url(#glass)" stroke="url(#rim)"/><circle cx="16" cy="18" r="3.5" fill="url(#dot)"/><text x="26" y="23" font-family="-apple-system, BlinkMacSystemFont, 'SF Pro Display', 'Segoe UI', Inter, Helvetica, Arial, sans-serif" font-size="14" font-weight="600" fill="#DCE3EE">Open source</text></g><g transform="translate(2071 14)"><rect width="78" height="36" rx="18" fill="url(#glass)" stroke="url(#rim)"/><circle cx="16" cy="18" r="3.5" fill="url(#dot)"/><text x="26" y="23" font-family="-apple-system, BlinkMacSystemFont, 'SF Pro Display', 'Segoe UI', Inter, Helvetica, Arial, sans-serif" font-size="14" font-weight="600" fill="#DCE3EE">Docker</text></g><g transform="translate(2161 14)"><rect width="121" height="36" rx="18" fill="url(#glass)" stroke="url(#rim)"/><circle cx="16" cy="18" r="3.5" fill="url(#dot)"/><text x="26" y="23" font-family="-apple-system, BlinkMacSystemFont, 'SF Pro Display', 'Segoe UI', Inter, Helvetica, Arial, sans-serif" font-size="14" font-weight="600" fill="#DCE3EE">Self-hosted</text></g></g></g><rect width="1280" height="64" fill="url(#tfade)"/></g>
<rect x="0.5" y="0.5" width="1279" height="63" rx="32" fill="none" stroke="#FFFFFF" stroke-opacity="0.09"/>
</svg>